# xmcd
#
# Track frame offsets:
#	150
#	17528
#	31028
#	44183
#	57341
#	71163
#	85523
#	100869
#	117797
#	131102
#	147517
#	164340
#	179031
#	192541
#	207204
#
# Disc length: 2945 seconds
#
# Revision: 1
# Processed by: cddbd v1.4PL0 Copyright (c) Steve Scherf et al.
# Submitted via: audiograbber 1.82.02
#
DISCID=dd0b7f0f
DTITLE=De Fetzer - 75 00
DYEAR=1900
DGENRE=Humour
TTITLE0=Mir jonn noch nit noh Huus
TTITLE1=Hasta Manana
TTITLE2=Wat e Wedder widder wat Marie
TTITLE3=Kumm dunn wieder laache
TTITLE4=Samsdach es Badedach
TTITLE5=Und wenn wir alle Pleite geh´n
TTITLE6=Onkel Doktor ich bin da
TTITLE7=Mädche kumm danz met mir
TTITLE8=So wie domols
TTITLE9=En Melodie im Ohr
TTITLE10=Dä Kaminsfäjer
TTITLE11=Wenn d´Mond verzälle künnt
TTITLE12=Wir fahren
TTITLE13=Schatzemann
TTITLE14=Mer han ne kleene Jaade
EXTD=
EXTT0=
EXTT1=
EXTT2=
EXTT3=
EXTT4=
EXTT5=
EXTT6=
EXTT7=
EXTT8=
EXTT9=
EXTT10=
EXTT11=
EXTT12=
EXTT13=
EXTT14=
PLAYORDER=
